<?xml version="1.0" encoding="UTF-8"?>
<svg id="_レイヤー_1" data-name="レイヤー_1" xmlns="http://www.w3.org/2000/svg" version="1.1" viewBox="0 0 900 250">
  <!-- Generator: Adobe Illustrator 30.1.0, SVG Export Plug-In . SVG Version: 2.1.1 Build 136)  -->
  <defs>
    <style>
      .st0, .st1 {
        fill: #fff;
        font-family: Arial-BoldMT, Arial;
        font-weight: 700;
      }

      .st0, .st1, .st2, .st3, .st4, .st5, .st6, .st7, .st8, .st9, .st10 {
        isolation: isolate;
      }

      .st0, .st8 {
        font-size: 14px;
      }

      .st1 {
        font-size: 13px;
      }

      .st2 {
        fill: #666;
        font-size: 10px;
      }

      .st2, .st4, .st11 {
        font-family: KozGoPr6N-Regular-83pv-RKSJ-H, 'Kozuka Gothic Pr6N';
      }

      .st12, .st9 {
        fill: #ffd93d;
      }

      .st13 {
        stroke: #ffd93d;
      }

      .st13, .st14, .st15, .st16 {
        stroke-width: 2px;
      }

      .st3 {
        fill: #a855f7;
      }

      .st3, .st6, .st7, .st9, .st10 {
        opacity: .2;
      }

      .st4 {
        font-size: 11px;
      }

      .st4, .st5 {
        fill: #888;
      }

      .st17, .st8, .st10 {
        fill: #00d4ff;
      }

      .st5 {
        font-size: 12px;
      }

      .st6, .st18 {
        fill: #6bcb77;
      }

      .st19, .st7 {
        fill: #ff6b6b;
      }

      .st14 {
        stroke: #6bcb77;
      }

      .st15 {
        stroke: #ff6b6b;
      }

      .st16 {
        stroke: #00d4ff;
      }

      .st20 {
        font-family: ArialMT, Arial;
      }
    </style>
  </defs>
  <circle class="st10" cx="60" cy="60" r="40"/>
  <text class="st0" transform="translate(38.6 64.9)"><tspan x="0" y="0">Atoms</tspan></text>
  <text class="st2" transform="translate(24.9 158.6)"><tspan x="0" y="0">ボタン、入力欄</tspan><tspan x="-5" y="14">ラベル、アイコン</tspan></text>
  <g>
    <path class="st16" d="M113.7,60h60"/>
    <polygon class="st17" points="173.7 55 181.7 60 173.7 65 173.7 55"/>
  </g>
  <circle class="st6" cx="240.3" cy="60" r="45"/>
  <text class="st1" transform="translate(208.8 64.6)"><tspan x="0" y="0">Molecules</tspan></text>
  <text class="st4" transform="translate(229.4 139.1)"><tspan x="0" y="0">分子</tspan></text>
  <text class="st2" transform="translate(210.4 158.5)"><tspan x="0" y="0">検索フォーム</tspan><tspan x="10" y="14">ナビ項目</tspan></text>
  <g>
    <path class="st14" d="M299,60h60"/>
    <polygon class="st18" points="359 55 367 60 359 65 359 55"/>
  </g>
  <circle class="st9" cx="430.7" cy="60" r="50"/>
  <text class="st1" transform="translate(396.7 63.4)"><tspan x="0" y="0">Organisms</tspan></text>
  <text class="st4" transform="translate(419.5 139.3)"><tspan x="0" y="0">生体</tspan></text>
  <text class="st2" transform="translate(410.9 158.8)"><tspan x="0" y="0">ヘッダー</tspan><tspan x="-5" y="14">商品カード</tspan></text>
  <g>
    <path class="st13" d="M494.3,60h60"/>
    <polygon class="st12" points="554.3 55 562.3 60 554.3 65 554.3 55"/>
  </g>
  <circle class="st7" cx="631" cy="60" r="55"/>
  <text class="st1" transform="translate(599 63.4)"><tspan x="0" y="0">Templates</tspan></text>
  <text class="st4" transform="translate(598.1 139.6)"><tspan x="0" y="0">テンプレート</tspan></text>
  <text class="st2" transform="translate(595.4 158.4)"><tspan x="0" y="0">レイアウト構造</tspan><tspan x="-5" y="14">ワイヤーフレーム</tspan></text>
  <g>
    <path class="st15" d="M699.7,60h60"/>
    <polygon class="st19" points="759.7 55 767.7 60 759.7 65 759.7 55"/>
  </g>
  <ellipse class="st3" cx="840.7" cy="60" rx="59.3" ry="60"/>
  <text class="st0" transform="translate(819.9 63.5)"><tspan x="0" y="0">Pages</tspan></text>
  <text class="st2" transform="translate(815.7 158.4)"><tspan x="0" y="0">実際の画面</tspan><tspan x="-10" y="14">コンテンツ入り</tspan></text>
  <text class="st4" transform="translate(49.1 138.6)"><tspan x="0" y="0">原子</tspan></text>
  <text class="st4" transform="translate(824.1 139.5)"><tspan x="0" y="0">ページ</tspan></text>
  <text class="st8" transform="translate(263.1 225.5)"><tspan class="st11" x="0" y="0">小さい</tspan><tspan class="st20" x="42" y="0" xml:space="preserve"> → → → → → → → → → → → → → → → → </tspan><tspan class="st11" x="332.1" y="0">大きい</tspan></text>
  <text class="st5" transform="translate(266.9 246.8)"><tspan class="st11" x="0" y="0">抽象的</tspan><tspan class="st20" x="36" y="0" xml:space="preserve"> → → → → → → → → → → → → → → → → → → → </tspan><tspan class="st11" x="330.7" y="0">具体的</tspan></text>
</svg>