<?xml version="1.0" encoding="UTF-8"?>
<svg id="_レイヤー_2" data-name="レイヤー 2" xmlns="http://www.w3.org/2000/svg" viewBox="0 0 96.51 97.27">
  <defs>
    <style>
      .cls-1 {
        fill: #231815;
      }
    </style>
  </defs>
  <g id="_レイヤー_1-2" data-name="レイヤー 1">
    <g>
      <polygon class="cls-1" points="60.28 31.77 60.86 32.77 84.34 32.77 72.6 53.1 73.18 54.11 86.07 31.77 60.28 31.77"/>
      <polygon class="cls-1" points="35.65 32.77 36.23 31.77 10.44 31.77 23.33 54.1 23.91 53.1 12.17 32.77 35.65 32.77"/>
      <polygon class="cls-1" points="48.26 95.27 36.52 74.94 35.36 74.94 48.26 97.27 61.15 74.94 60 74.94 48.26 95.27"/>
      <path class="cls-1" d="M42.45,20.99l5.81-10.06,5.81,10.06c3.29-1.98,5.5-5.57,5.5-9.69,0-6.24-5.06-11.31-11.31-11.31s-11.31,5.06-11.31,11.31c0,4.12,2.21,7.71,5.5,9.69Z"/>
      <path class="cls-1" d="M85.21,63.63c-2.06,0-3.99.56-5.65,1.52l5.65,9.78h-11.31c0,6.24,5.06,11.31,11.31,11.31s11.31-5.06,11.31-11.31-5.06-11.31-11.31-11.31Z"/>
      <path class="cls-1" d="M16.96,65.15c-1.66-.96-3.59-1.52-5.65-1.52-6.24,0-11.31,5.06-11.31,11.31s5.06,11.31,11.31,11.31,11.31-5.06,11.31-11.31h-11.31l5.65-9.78Z"/>
    </g>
  </g>
</svg>