<?xml version="1.0" encoding="UTF-8"?>
<svg id="_レイヤー_1" data-name="レイヤー_1" xmlns="http://www.w3.org/2000/svg" version="1.1" viewBox="0 0 900 450">
  <!-- Generator: Adobe Illustrator 30.1.0, SVG Export Plug-In . SVG Version: 2.1.1 Build 136)  -->
  <defs>
    <style>
      .st0, .st1, .st2, .st3, .st4, .st5, .st6, .st7, .st8, .st9, .st10, .st11, .st12 {
        isolation: isolate;
      }

      .st0, .st1, .st8, .st10, .st12 {
        font-size: 20px;
        font-weight: 700;
      }

      .st0, .st1, .st8, .st13, .st12 {
        font-family: KozGoPr6N-Bold-83pv-RKSJ-H, 'Kozuka Gothic Pr6N';
      }

      .st0, .st5 {
        fill: #a855f7;
      }

      .st1, .st11 {
        fill: #00d4ff;
      }

      .st2, .st3, .st4 {
        fill: #fff;
      }

      .st2, .st4 {
        font-size: 16px;
      }

      .st2, .st14 {
        font-family: ArialMT, Arial;
      }

      .st3 {
        font-size: 15px;
      }

      .st5 {
        stroke: #a855f7;
      }

      .st5, .st6, .st7, .st9, .st11 {
        opacity: .1;
        stroke-width: 2px;
      }

      .st6 {
        stroke: #ffd93d;
      }

      .st6, .st8 {
        fill: #ffd93d;
      }

      .st15 {
        font-family: Arial-BoldMT, Arial;
      }

      .st7 {
        stroke: #ff6b6b;
      }

      .st7, .st12 {
        fill: #ff6b6b;
      }

      .st9 {
        stroke: #4ecdc4;
      }

      .st9, .st10 {
        fill: #4ecdc4;
      }

      .st16 {
        font-family: KozGoPr6N-Regular-83pv-RKSJ-H, 'Kozuka Gothic Pr6N';
      }

      .st11 {
        stroke: #00d4ff;
      }
    </style>
  </defs>
  <rect class="st11" width="280" height="250" rx="12" ry="12"/>
  <text class="st1" transform="translate(100 41.6)"><tspan x="0" y="0">設計思考</tspan></text>
  <g>
    <text class="st4" transform="translate(45.6 78.1)"><tspan class="st14" x="0" y="0">• </tspan><tspan class="st16" x="10" y="0">デザインは「設計」である</tspan></text>
    <text class="st4" transform="translate(45.6 107.5)"><tspan class="st14" x="0" y="0">• </tspan><tspan class="st16" x="10" y="0">ブランド・アイデンティティ</tspan></text>
    <text class="st2" transform="translate(45.6 133.9)"><tspan x="0" y="0">• Atomic Design</tspan></text>
    <text class="st4" transform="translate(45.6 164.9)"><tspan class="st14" x="0" y="0">• </tspan><tspan class="st16" x="10" y="0">成約率を科学する（</tspan><tspan class="st14" x="154" y="0">CRO</tspan><tspan class="st16" x="189.6" y="0">）</tspan></text>
    <text class="st4" transform="translate(45.6 194.1)"><tspan class="st14" x="0" y="0">• </tspan><tspan class="st16" x="10" y="0">モバイルファースト戦略</tspan></text>
    <text class="st4" transform="translate(45.6 223.4)"><tspan class="st14" x="0" y="0">• LP</tspan><tspan class="st16" x="29.6" y="0">のビジュアル戦略</tspan></text>
  </g>
  <rect class="st7" x="310" width="280" height="250" rx="12" ry="12"/>
  <text class="st12" transform="translate(410 41.6)"><tspan x="0" y="0">表現技術</tspan></text>
  <g>
    <text class="st4" transform="translate(346.2 78.1)"><tspan class="st14" x="0" y="0">• </tspan><tspan class="st16" x="10" y="0">感情をハックする色彩と文字</tspan></text>
    <text class="st4" transform="translate(346.2 107)"><tspan class="st14" x="0" y="0">• Figma</tspan><tspan class="st16" x="54.5" y="0">による骨格設計</tspan></text>
    <text class="st4" transform="translate(346.2 137.9)"><tspan class="st14" x="0" y="0">• </tspan><tspan class="st16" x="10" y="0">写真加工（</tspan><tspan class="st14" x="90" y="0">Canva × AI</tspan><tspan class="st16" x="169.6" y="0">）</tspan></text>
    <text class="st4" transform="translate(346.2 167.3)"><tspan class="st14" x="0" y="0">• SNS</tspan><tspan class="st16" x="42.9" y="0">特化型デザイン</tspan></text>
    <text class="st4" transform="translate(346.2 196.5)"><tspan class="st14" x="0" y="0">• </tspan><tspan class="st16" x="10" y="0">ポートフォリオ構築</tspan></text>
  </g>
  <rect class="st9" x="620" width="280" height="250" rx="12" ry="12"/>
  <text class="st10" transform="translate(730 41.6)"><tspan class="st15" x="0" y="0">AI</tspan><tspan class="st13" x="20" y="0">活用</tspan></text>
  <g>
    <text class="st4" transform="translate(676.1 78.1)"><tspan class="st14" x="0" y="0">• </tspan><tspan class="st16" x="10" y="0">生成</tspan><tspan class="st14" x="42" y="0">AI</tspan><tspan class="st16" x="57.2" y="0">完全制御</tspan></text>
    <text class="st4" transform="translate(676.1 107.1)"><tspan class="st14" x="0" y="0">• </tspan><tspan class="st16" x="10" y="0">カスタム</tspan><tspan class="st14" x="74" y="0">AI</tspan><tspan class="st16" x="89.2" y="0">（</tspan><tspan class="st14" x="105.2" y="0">Gem</tspan><tspan class="st16" x="139.8" y="0">）構築</tspan></text>
    <text class="st4" transform="translate(676.1 136.4)"><tspan class="st14" x="0" y="0">• </tspan><tspan class="st16" x="10" y="0">ロジック・プロンプト</tspan></text>
    <text class="st4" transform="translate(676.1 164.9)"><tspan class="st14" x="0" y="0">• </tspan><tspan class="st16" x="10" y="0">最新</tspan><tspan class="st14" x="42" y="0">AI</tspan><tspan class="st16" x="57.2" y="0">ツール実験</tspan></text>
  </g>
  <rect class="st6" x="135" y="280" width="300" height="170" rx="12" ry="12"/>
  <text class="st8" transform="translate(255 321.6)"><tspan x="0" y="0">実践力</tspan></text>
  <g>
    <text class="st4" transform="translate(164.5 358.1)"><tspan class="st14" x="0" y="0">• </tspan><tspan class="st16" x="10" y="0">言語化ドリル（</tspan><tspan class="st14" x="122" y="0">1</tspan><tspan class="st16" x="130.9" y="0">）（</tspan><tspan class="st14" x="162.9" y="0">2</tspan><tspan class="st16" x="171.8" y="0">）</tspan></text>
    <text class="st4" transform="translate(164.5 387)"><tspan class="st14" x="0" y="0">• 80</tspan><tspan class="st16" x="27.8" y="0">点を</tspan><tspan class="st14" x="59.8" y="0">30</tspan><tspan class="st16" x="77.6" y="0">分でタイムアタック</tspan></text>
    <text class="st4" transform="translate(164.5 415.9)"><tspan class="st14" x="0" y="0">• </tspan><tspan class="st16" x="10" y="0">クライアント提案シミュレーション</tspan></text>
  </g>
  <rect class="st5" x="465" y="280" width="300" height="170" rx="12" ry="12"/>
  <text class="st0" transform="translate(595 321.6)"><tspan x="0" y="0">統合</tspan></text>
  <g>
    <text class="st3" transform="translate(550.3 357.2)"><tspan class="st14" x="0" y="0">• </tspan><tspan class="st16" x="9.4" y="0">人間の感性の価値</tspan></text>
    <text class="st3" transform="translate(550.3 386.2)"><tspan class="st14" x="0" y="0">• </tspan><tspan class="st16" x="9.4" y="0">論理</tspan><tspan class="st14" x="39.4" y="0">×</tspan><tspan class="st16" x="48.2" y="0">感性の融合</tspan></text>
    <text class="st3" transform="translate(550.3 415.2)"><tspan class="st14" x="0" y="0">• AI</tspan><tspan class="st16" x="23.6" y="0">との協働設計</tspan></text>
  </g>
</svg>