<?xml version="1.0" encoding="UTF-8"?>
<svg id="_レイヤー_1" data-name="レイヤー_1" xmlns="http://www.w3.org/2000/svg" version="1.1" viewBox="0 0 850 400">
  <!-- Generator: Adobe Illustrator 30.1.0, SVG Export Plug-In . SVG Version: 2.1.1 Build 136)  -->
  <defs>
    <style>
      .st0, .st1, .st2, .st3, .st4, .st5, .st6, .st7, .st8, .st9, .st10, .st11, .st12 {
        isolation: isolate;
      }

      .st0, .st11 {
        fill: #aaa;
        font-size: 9px;
      }

      .st1, .st5, .st7, .st10 {
        font-family: KozGoPr6N-Bold-83pv-RKSJ-H, 'Kozuka Gothic Pr6N';
        font-size: 13px;
        font-weight: 700;
      }

      .st1, .st6 {
        fill: #ffd93d;
      }

      .st2 {
        fill: #a855f7;
        opacity: .3;
      }

      .st13 {
        stroke: #ffd93d;
      }

      .st13, .st14, .st15, .st16 {
        fill: none;
        stroke-dasharray: 5 5;
        stroke-width: 2px;
      }

      .st3, .st4, .st6, .st9 {
        opacity: .2;
      }

      .st3, .st10 {
        fill: #ff6b6b;
      }

      .st4, .st7 {
        fill: #4ecdc4;
      }

      .st14 {
        stroke: #4ecdc4;
      }

      .st5, .st9 {
        fill: #00d4ff;
      }

      .st15 {
        stroke: #ff6b6b;
      }

      .st8 {
        font-size: 14px;
      }

      .st8, .st11, .st17 {
        font-family: KozGoPr6N-Regular-83pv-RKSJ-H, 'Kozuka Gothic Pr6N';
      }

      .st8, .st12 {
        fill: #fff;
      }

      .st16 {
        stroke: #00d4ff;
      }

      .st18 {
        font-family: ArialMT, Arial;
      }

      .st12 {
        font-size: 10px;
      }
    </style>
  </defs>
  <circle class="st2" cx="425" cy="200" r="50"/>
  <text class="st8" transform="translate(404 205.3)"><tspan x="0" y="0">あなた</tspan></text>
  <line class="st16" x1="375" y1="170" x2="265" y2="120"/>
  <rect class="st9" x="80" y="40" width="180" height="80" rx="8" ry="8"/>
  <text class="st5" transform="translate(111.5 67)"><tspan x="0" y="0">クラウドソーシング</tspan></text>
  <text class="st12" transform="translate(108.3 92)"><tspan class="st18" x="0" y="0">CW / </tspan><tspan class="st17" x="25" y="0">ランサーズ</tspan><tspan class="st18" x="75" y="0" xml:space="preserve"> / </tspan><tspan class="st17" x="83.3" y="0">ココナラ</tspan></text>
  <text class="st0" transform="translate(136.5 107)"><tspan class="st18" x="0" y="0">Upwork</tspan><tspan class="st17" x="30.5" y="0">（海外）</tspan></text>
  <line class="st14" x1="475" y1="170" x2="585" y2="120"/>
  <rect class="st4" x="590" y="40" width="180" height="80" rx="8" ry="8"/>
  <text class="st7" transform="translate(654.4 67)"><tspan x="0" y="0">起業準備</tspan></text>
  <text class="st12" transform="translate(605.2 92)"><tspan class="st17" x="0" y="0">自社サービス</tspan><tspan class="st18" x="60" y="0" xml:space="preserve"> / </tspan><tspan class="st17" x="68.3" y="0">ブランド立ち上げ</tspan></text>
  <text class="st11" transform="translate(638.7 107)"><tspan x="0" y="0">ビジネスモデル構築</tspan></text>
  <line class="st13" x1="375" y1="230" x2="265" y2="280"/>
  <rect class="st6" x="80" y="280" width="180" height="80" rx="8" ry="8"/>
  <text class="st1" transform="translate(131.1 307)"><tspan x="0" y="0">イベント開催</tspan></text>
  <text class="st12" transform="translate(115.7 332)"><tspan class="st17" x="0" y="0">ワークショップ</tspan><tspan class="st18" x="70" y="0" xml:space="preserve"> / </tspan><tspan class="st17" x="78.3" y="0">勉強会</tspan></text>
  <text class="st11" transform="translate(134 347)"><tspan x="0" y="0">コミュニティ形成</tspan></text>
  <line class="st15" x1="475" y1="230" x2="585" y2="280"/>
  <rect class="st3" x="590" y="280" width="180" height="80" rx="8" ry="8"/>
  <text class="st10" transform="translate(608.6 307)"><tspan x="0" y="0">クラウドファンディング</tspan></text>
  <text class="st12" transform="translate(615.6 332)"><tspan class="st17" x="0" y="0">プロダクト</tspan><tspan class="st18" x="50" y="0" xml:space="preserve"> / </tspan><tspan class="st17" x="58.3" y="0">コンテンツ制作</tspan></text>
  <text class="st0" transform="translate(639.1 347)"><tspan class="st17" x="0" y="0">資金調達</tspan><tspan class="st18" x="36" y="0" xml:space="preserve"> × </tspan><tspan class="st17" x="46.3" y="0">市場検証</tspan></text>
</svg>