<?xml version="1.0" encoding="UTF-8"?>
<svg id="_レイヤー_1" data-name="レイヤー_1" xmlns="http://www.w3.org/2000/svg" version="1.1" viewBox="0 0 935.2 112">
  <!-- Generator: Adobe Illustrator 30.1.0, SVG Export Plug-In . SVG Version: 2.1.1 Build 136)  -->
  <defs>
    <style>
      .st0 {
        fill: #fff;
      }
    </style>
  </defs>
  <g id="_レイヤー_2" data-name="レイヤー_2">
    <g id="_レイヤー_1-2" data-name="レイヤー_1-2">
      <path class="st0" d="M923.2,88.4c6.5.1,11.7,5.5,11.6,12s-5.5,11.7-12,11.6c-6.5-.1-11.7-5.4-11.6-11.9,0-6.5,5.2-11.7,11.7-11.7.1,0,.2,0,.3,0ZM923.2,109.7c5.1,0,9.2-4.1,9.2-9.1,0-.1,0-.2,0-.4-.2-5.1-4.4-9.1-9.5-8.9-5.1.2-9.1,4.4-8.9,9.5.2,5,4.2,8.9,9.2,8.9ZM918.7,106.3v-11.9c1.4-.3,2.9-.4,4.4-.4,2.1,0,5.2.4,5.2,3.5,0,1.4-1.1,2.5-2.5,2.8v.2c1.2.4,1.7,1.4,2.1,2.9.1,1,.4,2.1.9,3h-2.7c-.5-.9-.8-2-.9-3-.5-1.9-1.5-1.9-3.9-1.9v4.8h-2.6ZM921.3,99.6c2,0,4.2,0,4.2-1.8s-.8-1.9-2.7-1.9c-.5,0-1,0-1.5.1v3.6Z"/>
      <path class="st0" d="M394.8,43.9h39.8V3h27.6v106h-27.6v-43.7h-39.8v43.7h-27.6V3h27.6v40.9Z"/>
      <path class="st0" d="M482.2,56c-.3-22.4,13.4-42.7,34.3-50.8,15-5.6,31.5-5.6,46.5,0,6.8,2.6,13,6.6,18.3,11.7,5.1,5,9.2,10.9,12,17.5,2.9,6.8,4.3,14.2,4.2,21.6,0,7.4-1.4,14.8-4.3,21.6-2.8,6.6-6.9,12.5-12,17.5-5.3,5.1-11.5,9-18.3,11.7-15,5.6-31.5,5.6-46.5,0-20.9-8.1-34.6-28.4-34.3-50.8ZM510.5,56c0,3.9.8,7.9,2.4,11.5,1.5,3.4,3.7,6.5,6.4,9.1,2.7,2.6,5.9,4.6,9.3,6,10.9,4.4,23.4,2,31.9-6,2.7-2.6,4.9-5.7,6.4-9.1,3.1-7.3,3.1-15.6,0-22.9-1.5-3.4-3.7-6.5-6.4-9.1-8.6-8-21-10.3-31.9-6-3.5,1.4-6.6,3.4-9.3,6-2.7,2.6-4.8,5.7-6.4,9.1-1.6,3.6-2.4,7.5-2.4,11.5Z"/>
      <path class="st0" d="M644.9,2v57.1c0,3.1.1,6.2.3,9.4.2,3,.9,6,2.1,8.7,1.2,2.6,3.1,4.8,5.5,6.3,2.5,1.6,6,2.4,10.6,2.4s8.1-.8,10.5-2.4c2.4-1.6,4.3-3.7,5.5-6.3,1.2-2.7,2-5.7,2.2-8.7.2-3.2.3-6.3.3-9.4V2h27.2v60.9c0,16.4-3.7,28.3-11.2,35.8-7.5,7.5-19,11.3-34.5,11.3-15.5,0-27-3.8-34.6-11.3-7.5-7.5-11.3-19.5-11.3-35.8V2h27.3Z"/>
      <path class="st0" d="M792.1,30.1c-2.7-2.3-5.7-4.1-9-5.4-2.8-1.1-5.7-1.7-8.7-1.8-3.1-.1-6.2.8-8.7,2.5-2.2,1.5-3.4,4-3.4,6.6,0,1.7.5,3.4,1.7,4.6,1.3,1.3,2.8,2.4,4.4,3.2,2,1,4.1,1.7,6.2,2.3,2.3.7,4.6,1.4,6.8,2.1,9,3,15.6,7,19.8,12,4.2,5,6.3,11.6,6.3,19.7,0,5.1-.9,10.1-2.7,14.8-1.8,4.3-4.5,8.2-8,11.3-3.8,3.3-8.2,5.8-13,7.3-5.6,1.8-11.5,2.7-17.4,2.6-13.4,0-26.4-4.2-37.3-12l11.8-22.2c3.6,3.4,7.8,6.1,12.3,8.2,3.8,1.7,7.9,2.6,12,2.7,4.5,0,7.9-1,10.1-3.1,3.2-2.8,4.2-7.3,2.5-11.2-.7-1.3-1.6-2.4-2.8-3.2-1.6-1.1-3.3-2.1-5.1-2.8-2.1-.8-4.7-1.8-7.7-2.8-3.6-1.1-7.1-2.4-10.5-3.7-3.3-1.3-6.4-3.1-9.1-5.4-2.7-2.3-5-5.2-6.5-8.5-1.6-3.4-2.5-7.8-2.5-13,0-4.9.8-9.7,2.6-14.3,1.6-4.1,4.1-7.9,7.3-11,3.3-3.2,7.2-5.6,11.5-7.1,4.9-1.7,10-2.6,15.2-2.5,5.6,0,11.1.8,16.5,2.2,5.7,1.5,11.3,3.6,16.5,6.4l-11,21.5Z"/>
      <path class="st0" d="M891.2,24.7h-34.6v18.7h32.7v24.6h-32.7v19.3h34.6v24.7h-63.7V0h63.7v24.7Z"/>
      <path class="st0" d="M75.1,90.6h-39.4l-6.3,18.4H0L40.3,3h30.1l40.3,106h-29.4l-6.3-18.4ZM67.8,69.6l-12.4-35.3-12.4,35.3h24.8Z"/>
      <polygon class="st0" points="330.1 0 327 0 308 0 269 0 250.1 0 247 0 247 24.7 250.1 24.7 250.1 24.7 274 24.7 274 112 303.1 112 303.1 24.7 327 24.7 327 24.7 330.1 24.7 330.1 0"/>
      <path class="st0" d="M204.4,69.6c-1.4,2.6-3.2,5-5.3,7-2.7,2.6-5.9,4.6-9.4,6-7.2,2.9-15.3,2.9-22.5,0-7-2.8-12.6-8.2-15.7-15.1-1.6-3.6-2.4-7.5-2.3-11.5,0-3.9.8-7.9,2.4-11.5,3-6.9,8.7-12.3,15.7-15.1,7.2-2.9,15.3-2.9,22.5,0,3.5,1.4,6.7,3.4,9.4,6,2.1,2,3.9,4.4,5.3,7l27.6-7.8c0,0,0-.1,0-.2-2.8-6.6-6.9-12.5-12-17.5-5.3-5.1-11.5-9-18.3-11.7-15-5.6-31.5-5.6-46.5,0-28.2,11.5-41.8,43.7-30.2,72,0,.2.1.3.2.5,5.6,13.4,16.5,23.9,30.1,29.2,15,5.6,31.5,5.6,46.5,0,6.8-2.6,13-6.6,18.3-11.7,5.1-5,9.2-10.9,12-17.5,0,0,0-.1,0-.2l-27.6-7.8Z"/>
    </g>
  </g>
</svg>